<svg id="icons" enable-background="new 0 0 64 64" height="512" viewBox="0 0 64 64" width="512" xmlns="http://www.w3.org/2000/svg"><path d="m9.079 40.131c-.051.122-.077.252-.077.382v8.485c0 .553.447 1 1 1h8.485c.13 0 .26-.026.382-.077.123-.051.234-.124.326-.217l17.997-17.997c.001 0 .001-.002.002-.002l2.067-2.067c.584.584 1.352.876 2.119.876.769 0 1.537-.292 2.122-.877.921-.921 1.105-2.292.577-3.406l12.567-12.567c.003-.003.006-.003.009-.006 1.513-1.512 2.345-3.521 2.345-5.658s-.832-4.146-2.344-5.656c-1.51-1.512-3.519-2.344-5.656-2.344s-4.146.832-5.657 2.344c-.003.003-.003.006-.006.009l-12.567 12.567c-1.114-.528-2.485-.344-3.407.577-1.168 1.171-1.168 3.072 0 4.241l-10.553 10.553c-.001 0-.001.002-.002.002l-9.512 9.512c-.093.091-.166.203-.217.326zm10.851-8.132h14.143l-16 15.999h-7.071v-7.071zm17.918-3.775-1.775 1.775h-14.143l8.847-8.847zm17.394-24.466c1.134 1.134 1.758 2.639 1.758 4.242 0 1.6-.622 3.104-1.752 4.236-.002.002-.005.003-.007.005l-12.445 12.446-8.482-8.482 12.445-12.446c.002-.002.003-.005.005-.007 1.132-1.13 2.636-1.752 4.236-1.752 1.603 0 3.108.624 4.242 1.758zm-24.465 13.153c.392-.391 1.025-.39 1.415 0l9.896 9.896c.39.391.39 1.024 0 1.414-.391.392-1.025.39-1.414.001l-9.897-9.897c-.389-.389-.389-1.024 0-1.414z"/><path d="m5 59c0 2.757 2.243 5 5 5s5-2.243 5-5c0-2.512-3.592-6.045-4.312-6.728-.387-.365-.99-.365-1.377 0-.719.683-4.311 4.216-4.311 6.728zm5-4.589c1.417 1.48 3 3.537 3 4.589 0 1.654-1.346 3-3 3s-3-1.346-3-3c0-1.049 1.584-3.106 3-4.589z"/></svg>